<svg width="102" height="84" viewBox="0 0 102 84" fill="none" xmlns="http://www.w3.org/2000/svg">
<path d="M16.399 26.5603H21.7397V83.8506H5.71753C2.56148 83.8506 0 81.265 0 78.0793V43.1134C0 33.975 7.34913 26.5603 16.399 26.5603Z" fill="#7848B6"/>
<path d="M45.6228 26.5603H23.8831V83.8506H45.6228V26.5603Z" fill="#7848B6"/>
<path d="M47.7693 26.5603H53.11C62.1634 26.5603 69.509 33.9785 69.509 43.1134V78.0793C69.509 81.265 66.9476 83.8506 63.7915 83.8506H47.7693V26.5603Z" fill="#7848B6"/>
<path d="M83.9999 35.4509C93.6983 35.4509 101.56 27.515 101.56 17.7255C101.56 7.93596 93.6983 0 83.9999 0C74.3016 0 66.4395 7.93596 66.4395 17.7255C66.4395 27.515 74.3016 35.4509 83.9999 35.4509Z" fill="#7848B6"/>
<path d="M83.9999 3.84523C91.5806 3.84523 97.751 10.0701 97.751 17.7255C97.751 25.381 91.5841 31.6058 83.9999 31.6058C76.4157 31.6058 70.2488 25.381 70.2488 17.7255C70.2488 10.0701 76.4157 3.84523 83.9999 3.84523ZM83.9999 2.63794C75.7451 2.63794 69.0527 9.39316 69.0527 17.7255C69.0527 26.0579 75.7451 32.8131 83.9999 32.8131C92.2547 32.8131 98.947 26.0579 98.947 17.7255C98.947 9.39316 92.2547 2.63794 83.9999 2.63794Z" fill="#E5F0FF"/>
<path d="M83.9999 13.9606C86.1572 13.9606 87.9061 12.1953 87.9061 10.0177C87.9061 7.84011 86.1572 6.07483 83.9999 6.07483C81.8426 6.07483 80.0938 7.84011 80.0938 10.0177C80.0938 12.1953 81.8426 13.9606 83.9999 13.9606Z" fill="#E5F0FF"/>
<path d="M73.1284 41.3687V43.5565C73.1284 43.8147 73.3358 44.0241 73.5916 44.0241H74.5388C75.0366 44.0241 75.4445 44.4323 75.4445 44.9382V49.2614C75.4445 49.7639 75.04 50.1756 74.5388 50.1756H73.5916C73.3358 50.1756 73.1284 50.385 73.1284 50.6432V53.637C73.1284 53.8952 73.3358 54.1046 73.5916 54.1046H74.5388C75.0366 54.1046 75.4445 54.5128 75.4445 55.0187V56.2679C75.4445 56.7704 75.04 57.1821 74.5388 57.1821H73.5916C73.3358 57.1821 73.1284 57.3914 73.1284 57.6496V60.305C73.1284 60.5632 73.3358 60.7725 73.5916 60.7725H74.5388C75.0366 60.7725 75.4445 61.1808 75.4445 61.6867V62.9359C75.4445 63.4383 75.04 63.8501 74.5388 63.8501H73.1319V64.1048H74.5388C75.0366 64.1048 75.4445 64.513 75.4445 65.019V66.2681C75.4445 66.7706 75.04 67.1823 74.5388 67.1823H73.1319V67.437H74.5388C75.0366 67.437 75.4445 67.8453 75.4445 68.3512V69.6004C75.4445 70.1028 75.04 70.5146 74.5388 70.5146H73.5916C73.3358 70.5146 73.1284 70.7239 73.1284 70.9821V74.0771C73.1284 74.9808 73.5087 75.8427 74.1724 76.4498L81.4005 83.0515C82.7901 84.3216 84.9645 84.1018 86.0776 82.577L94.2529 71.3799C94.6538 70.8286 94.8716 70.1656 94.8716 69.4817V41.3932C94.8716 39.2089 93.119 37.4398 90.9551 37.4398H77.045C74.881 37.4398 73.1284 39.2089 73.1284 41.3932V41.3687Z" fill="#7848B6"/>
<path d="M79.4683 44.045H80.3566V71.3904C80.3566 71.6382 80.1562 71.837 79.9142 71.837C79.6687 71.837 79.4717 71.6347 79.4717 71.3904V44.045H79.4683Z" fill="#E5F0FF"/>
</svg>
